PathFileType  4	(X/Y/Z) C:\Users\antoi\Documents\MyRepositories\mobilecap\ResultsAnalysis
DataRate	CameraRate	NumFrames	NumMarkers	Units	OrigDataRate	OrigDataStartFrame	OrigNumFrames
100.0	100.0	6	51	mm	100.0	164	261
Frame#	Time	r_knee			r_shank_antsup			r_ankle			r_calc			r_5meta			r_toe			L_knee			L_shank_antsup			L_ankle			L_calc			L_5meta			L_toe			r_sh2			r_sh3			r_sh4			L_sh2			L_sh3			r_thigh1			r_thigh2			r_thigh3			r_thigh4			r_thigh5			L_thigh1			L_thigh2			L_thigh3			L_thigh4			r.ASIS			r.PSIS			L.ASIS			L.PSIS			C7			R_Shoulder			L_Shoulder			R_Sternum			L_Sternum			R_humerus			R_elbow_med			R_elbow_lat			R_forearm			R_wrist_radius			R_wrist_ulna			L_humerus			L_elbow_med			L_elbow_lat			L_forearm			L_wrist_radius			L_wrist_ulna			R_HJC			L_HJC			R_HJC_reg			L_HJC_reg			
		X1	Y1	Z1	X2	Y2	Z2	X3	Y3	Z3	X4	Y4	Z4	X5	Y5	Z5	X6	Y6	Z6	X7	Y7	Z7	X8	Y8	Z8	X9	Y9	Z9	X10	Y10	Z10	X11	Y11	Z11	X12	Y12	Z12	X13	Y13	Z13	X14	Y14	Z14	X15	Y15	Z15	X16	Y16	Z16	X17	Y17	Z17	X18	Y18	Z18	X19	Y19	Z19	X20	Y20	Z20	X21	Y21	Z21	X22	Y22	Z22	X23	Y23	Z23	X24	Y24	Z24	X25	Y25	Z25	X26	Y26	Z26	X27	Y27	Z27	X28	Y28	Z28	X29	Y29	Z29	X30	Y30	Z30	X31	Y31	Z31	X32	Y32	Z32	X33	Y33	Z33	X34	Y34	Z34	X35	Y35	Z35	X36	Y36	Z36	X37	Y37	Z37	X38	Y38	Z38	X39	Y39	Z39	X40	Y40	Z40	X41	Y41	Z41	X42	Y42	Z42	X43	Y43	Z43	X44	Y44	Z44	X45	Y45	Z45	X46	Y46	Z46	X47	Y47	Z47	X48	Y48	Z48	X49	Y49	Z49	X50	Y50	Z50	X51	Y51	Z51	

164	1.63000000	5.64659	421.61844	-412.78229	10.30776	320.02417	-434.59562	-265.34609	123.10954	-466.43081	-363.97872	79.55758	-520.47318	-177.03367	48.25055	-415.27701	-109.55084	68.59589	-475.70061	-28.99248	454.81140	-804.33165	-50.60724	380.60274	-818.07927	-269.66005	132.61221	-737.36055	-363.60245	96.62533	-673.05600	-183.20195	47.25229	-770.11953	-115.76233	67.82061	-711.74285	-71.21344	241.58134	-419.49931	-27.88963	365.95797	-390.48473	-122.94907	298.80825	-386.49386	-119.99555	435.90088	-803.35563	-184.05529	331.57170	-787.33786	-217.03847	643.07540	-376.49977	-121.48772	598.25504	-391.27229	-118.36302	536.11529	-362.20587	-263.06311	542.11113	-373.43279	-156.72087	498.86756	-378.12912	-225.18906	657.68225	-761.42211	-97.47437	601.78834	-778.98904	-271.89064	560.30908	-782.80452	-149.31774	501.78579	-801.24521	-294.07039	752.93087	-429.61589	-480.65008	750.69004	-480.97781	-318.31444	750.41597	-674.10829	-495.61336	748.78410	-587.67882	-182.12849	1245.73940	-574.76108	-135.62051	1161.05085	-413.38000	-155.56323	1154.53893	-734.77300	-106.57200	1108.74489	-547.15666	-111.43011	1105.32242	-599.40267	-152.31863	1022.55063	-334.81332	-253.71346	820.87066	-320.77366	-213.89628	852.21394	-250.67745	-99.11014	718.52621	-253.89854	-31.89339	663.86233	-279.66675	-62.09151	642.27646	-251.25486	-183.55723	1045.78764	-818.71937	-232.28251	796.58031	-790.97652	-212.01552	822.86702	-868.54390	-137.54822	794.97228	-876.83022	13.19812	712.89936	-852.97849	-5.08636	676.79313	-865.36719	-364.33127	630.19397	-440.25155	-389.88689	633.77413	-645.59660	-346.54413	668.37245	-455.45334	-369.06158	665.50381	-616.02221	
165	1.64000000	7.91928	421.25810	-413.09074	12.03839	318.68942	-435.37004	-265.25824	123.21836	-466.25848	-363.94363	79.81080	-520.44643	-176.99939	48.21087	-415.23225	-109.64827	68.67972	-475.56235	-26.13317	454.61750	-804.01023	-47.86725	379.17488	-816.69669	-268.57762	133.51206	-734.78674	-362.38701	97.71482	-670.04271	-183.27687	48.09276	-769.50742	-115.29813	67.74627	-711.34640	-71.06328	241.54507	-420.62799	-25.72077	364.93745	-391.17363	-121.20109	299.02550	-385.40005	-116.67054	435.48872	-803.26307	-181.70666	331.81411	-785.72210	-217.12562	640.13958	-376.22116	-120.61210	596.33812	-391.90242	-117.36739	534.73207	-361.61090	-262.04257	538.99413	-372.33288	-155.23050	496.66090	-377.42725	-225.96274	654.69444	-760.86746	-97.63870	600.22412	-778.24483	-271.38949	556.68624	-781.73227	-148.26407	499.86062	-801.22014	-293.15344	748.12149	-429.44579	-480.01700	746.39556	-479.94472	-317.87412	744.94894	-673.42957	-495.07497	744.19606	-586.53645	-178.34194	1239.18221	-572.50951	-130.44341	1154.00711	-412.49642	-150.34369	1149.24444	-732.39932	-102.79252	1102.01686	-545.53383	-107.75532	1098.47954	-597.75191	-136.13541	1016.38421	-336.16934	-222.14018	807.31972	-321.99294	-180.25528	840.26397	-254.09213	-60.75631	710.51235	-261.76739	6.68596	657.59412	-290.46467	-21.77766	635.48462	-260.12030	-170.59812	1042.49729	-818.16365	-201.23473	789.69319	-798.59653	-179.07600	819.52067	-873.71342	-102.76091	795.86164	-879.43937	50.51095	720.14985	-850.04671	34.86040	683.70266	-864.33262	-363.84848	625.60750	-439.20922	-389.94041	628.64197	-644.49649	-346.13016	663.82813	-454.86469	-368.76702	660.52161	-615.10697	
166	1.65000000	9.58560	420.55031	-412.87638	13.30686	317.80316	-435.63939	-265.09991	123.38666	-466.15612	-363.91908	80.00711	-520.43345	-176.98567	48.19348	-415.23801	-109.61816	68.66132	-475.58703	-23.86165	454.05506	-802.91744	-45.64225	377.83931	-815.06231	-267.97232	134.09786	-732.93779	-361.58744	98.16914	-667.96274	-183.33038	48.76105	-768.90998	-114.98078	67.83104	-711.09859	-69.78735	240.71950	-420.55474	-24.12870	363.94395	-391.39402	-120.37563	298.77371	-385.86167	-114.45768	434.50299	-803.35962	-179.74527	331.19273	-784.14288	-217.27506	638.23002	-375.85260	-119.77704	595.28676	-392.55743	-116.39765	533.94274	-361.39190	-261.15350	536.59060	-371.57152	-153.87199	495.37420	-376.45443	-226.25994	652.39985	-759.66556	-97.54319	598.85725	-776.60188	-270.69381	553.88144	-780.62014	-147.10332	498.34038	-800.52075	-292.38197	744.76602	-428.89874	-479.35974	743.11286	-479.08181	-317.36754	741.42679	-672.62488	-494.52277	740.88757	-585.65051	-174.97972	1234.02510	-570.21254	-125.70378	1148.55301	-411.39833	-144.86106	1145.74170	-729.99219	-99.47662	1096.78051	-543.93488	-104.40922	1093.18119	-596.05539	-120.39101	1012.41683	-338.09086	-188.43079	798.06120	-325.79634	-147.23234	832.12115	-258.79485	-23.21081	706.54565	-270.50505	44.39143	655.15185	-300.97195	17.78952	632.68515	-269.61142	-158.25987	1041.42972	-817.36331	-170.46431	788.20763	-803.00641	-148.06417	820.34373	-878.54483	-70.18295	801.06198	-881.26507	85.23407	731.62751	-847.05349	72.22144	695.13078	-863.29222	-363.19970	622.28890	-438.38602	-389.51494	625.19895	-643.64653	-345.45718	660.50413	-454.19777	-368.23256	657.16168	-614.26811	
167	1.66000000	10.81646	419.62829	-412.20760	14.13177	317.14215	-435.52275	-264.90958	123.57133	-466.02978	-363.89850	80.19611	-520.33750	-176.96438	48.16545	-415.20415	-109.57020	68.64532	-475.53716	-22.41483	453.13161	-800.95487	-44.12814	377.09289	-813.42110	-267.79675	134.38246	-732.15539	-361.35131	98.12758	-667.16466	-183.35193	49.04348	-768.50584	-114.83868	67.98572	-711.03041	-68.24245	239.57967	-419.94376	-23.08158	363.03198	-390.97260	-119.76587	297.90339	-386.38944	-113.20865	433.51514	-802.67097	-178.53624	330.17205	-782.72671	-217.17219	637.25446	-375.30924	-119.98049	594.44671	-392.10728	-115.56073	533.60960	-360.99767	-260.47922	535.07554	-370.98679	-152.84448	494.76474	-375.59968	-225.94361	650.73966	-757.97515	-96.84882	597.72003	-774.63724	-269.64795	551.94662	-779.34871	-145.66914	497.15596	-799.11477	-291.71788	742.99099	-427.86393	-478.67995	740.95656	-478.37421	-316.72125	739.65473	-671.69700	-493.84290	738.82974	-584.95063	-172.09407	1230.34955	-567.60555	-121.27670	1144.76488	-410.12425	-139.23094	1144.14764	-727.17282	-96.61361	1092.96311	-542.19196	-101.32028	1089.39973	-594.16221	-105.17951	1010.71233	-340.63853	-155.35146	792.72572	-331.18835	-115.28099	827.84865	-264.55902	12.76890	706.59712	-280.15668	80.78504	656.76271	-311.72129	56.07303	633.60128	-280.53704	-146.09075	1042.71121	-816.21046	-141.09090	791.55080	-805.14884	-119.51518	825.00377	-882.70126	-40.43533	809.99959	-882.37849	116.97137	747.00836	-844.17978	106.44823	711.06280	-862.84720	-362.38775	620.37037	-437.56451	-388.56839	623.30747	-642.84147	-344.58753	658.48287	-453.28424	-367.37207	655.28674	-613.42851	
168	1.67000000	11.55405	418.91190	-411.19977	14.49606	316.44871	-435.07853	-264.83482	123.64542	-465.81202	-363.89529	80.38326	-520.14363	-176.93699	48.10200	-415.02968	-109.54722	68.60144	-475.39366	-21.41034	452.25080	-798.30109	-43.12657	376.89012	-811.50399	-267.86998	134.44002	-732.13155	-361.60910	97.83455	-667.33576	-183.35487	49.04677	-768.55946	-114.92073	68.07676	-711.02714	-67.98747	239.03349	-419.85202	-22.52859	362.31866	-390.07091	-119.04593	297.06050	-385.70857	-112.31454	433.15379	-800.79925	-177.75470	329.71790	-781.72934	-216.69638	636.88040	-374.58781	-120.92443	593.55994	-390.49006	-115.11369	533.75730	-359.33755	-260.02679	534.71502	-370.10836	-152.20879	494.45687	-375.02458	-224.95739	649.83392	-756.07906	-95.47255	596.93928	-772.41855	-268.19876	551.03233	-777.88057	-144.01870	496.39225	-796.95250	-291.10723	742.64898	-426.75526	-478.00378	740.05049	-477.87079	-315.87323	739.35554	-670.87324	-493.01240	737.99703	-584.22080	-169.58355	1228.36700	-564.59778	-116.98929	1142.69422	-408.79757	-134.14117	1144.51032	-723.37955	-94.05715	1090.66447	-540.08746	-98.46443	1087.18238	-591.89250	-90.70083	1011.51392	-343.61588	-125.00710	791.08702	-337.24858	-84.94094	827.44570	-271.16889	46.71208	710.66177	-290.52028	115.46550	662.61680	-323.09850	92.33230	638.60093	-292.09077	-133.98245	1046.56743	-814.35236	-115.59592	796.43310	-809.74830	-93.70509	833.18174	-886.10225	-13.80901	822.18029	-883.15527	145.26472	765.58604	-841.51965	137.16331	730.68581	-862.98747	-361.44063	619.81364	-436.79424	-387.33309	622.79144	-642.10740	-343.66336	657.84752	-452.36822	-366.29183	654.75126	-612.70913	
169	1.68000000	11.66281	418.56210	-410.00828	14.44210	316.06864	-434.03269	-264.92317	123.62805	-465.44911	-363.94246	80.45146	-519.87726	-176.95579	48.01417	-414.78718	-109.47640	68.40721	-475.42144	-20.40069	451.63073	-795.39445	-42.37483	376.84261	-809.11815	-268.10967	134.29534	-732.20856	-362.07469	97.27648	-667.85235	-183.38814	48.96245	-768.82603	-115.13951	68.14822	-711.00792	-68.56189	239.03809	-419.56698	-22.49384	362.03661	-388.90234	-119.03017	296.76247	-384.42531	-111.39156	433.37986	-798.00340	-177.17309	330.05632	-780.92062	-215.96084	636.95655	-373.73622	-120.96147	593.21912	-388.97613	-114.97103	533.86498	-357.07650	-259.66239	535.20383	-369.14050	-152.02205	494.34889	-374.36570	-223.22390	649.74159	-754.11191	-93.71587	596.42393	-769.64330	-266.45964	551.10183	-776.23109	-142.32516	495.97048	-794.05903	-290.50061	743.48419	-425.76867	-477.24202	740.48737	-477.56181	-314.71739	740.29508	-670.33370	-491.94599	738.52293	-583.50070	-167.25709	1228.13850	-561.40092	-112.73673	1142.44883	-407.64415	-129.69344	1146.81716	-718.85966	-91.63843	1090.11335	-537.65657	-95.90077	1086.62111	-589.38557	-77.19666	1014.86939	-346.89911	-97.11560	793.02817	-343.65274	-56.77879	830.61680	-278.25957	78.37387	718.71661	-301.15638	148.17911	672.78701	-334.66144	126.32289	648.06929	-303.17267	-122.33861	1053.03760	-811.72843	-94.31080	801.86859	-818.09676	-70.71694	844.48480	-888.99394	9.78799	837.46459	-884.12309	170.11011	786.76397	-839.42288	164.24134	752.61535	-862.76136	-360.47493	620.49693	-436.17788	-385.98910	623.56368	-641.53727	-342.76524	658.41739	-451.65951	-365.06203	655.43894	-612.30819	
